<svg width="96" height="96" viewBox="0 0 96 96" fill="none" xmlns="http://www.w3.org/2000/svg" role="img" aria-labelledby="title desc">
  <title id="title">GMind Memory Toast mark</title>
  <desc id="desc">An original memory toast mark for GMind.</desc>
  <rect width="96" height="96" rx="24" fill="#10241D"/>
  <path d="M27 77V43C27 29 36 21 48 21C60 21 69 29 69 43V77C69 80 67 82 64 82H32C29 82 27 80 27 77Z" fill="#F5E4BD"/>
  <path d="M33 74V44C33 34 39 28 48 28C57 28 63 34 63 44V74C63 75 62 76 61 76H35C34 76 33 75 33 74Z" fill="#FFF4D6"/>
  <path d="M48 38V61M48 49H60M48 49H37" stroke="#153126" stroke-width="4" stroke-linecap="round"/>
  <circle cx="48" cy="49" r="5.5" fill="#2E7D5B" stroke="#FFF4D6" stroke-width="2"/>
  <circle cx="48" cy="38" r="4" fill="#C96B3C" stroke="#FFF4D6" stroke-width="1.8"/>
  <circle cx="60" cy="49" r="4" fill="#2D6CDF" stroke="#FFF4D6" stroke-width="1.8"/>
  <circle cx="37" cy="49" r="3.8" fill="#7C9A6A" stroke="#FFF4D6" stroke-width="1.8"/>
  <circle cx="48" cy="61" r="3.8" fill="#153126" stroke="#FFF4D6" stroke-width="1.8"/>
</svg>
