<svg width="40" height="40" viewBox="0 0 40 40" fill="none" xmlns="http://www.w3.org/2000/svg">
  <path fill-rule="evenodd" clip-rule="evenodd" d="M10 31V18C10 11.9 14.4 8 20 8C25.6 8 30 11.9 30 18V31C30 33.2 28.2 35 26 35H14C11.8 35 10 33.2 10 31ZM14 18C14 14.1 16.5 12 20 12C23.5 12 26 14.1 26 18V31H14V18Z" fill="black"/>
  <path d="M23.8 18.2C22.8 17.1 21.5 16.6 20 16.6C17.2 16.6 15 18.8 15 21.6C15 24.4 17.2 26.6 20 26.6C22.7 26.6 24.8 24.7 24.8 22.1V21.3H20.8" stroke="black" stroke-width="2.4" stroke-linecap="round" stroke-linejoin="round"/>
</svg>
